/* XPM */
static char * image2_xpm[] = {
"38 12 8 1",
" 	c #000000",
".	c #FF0000",
"+	c #FF00FF",
"@	c #0070FF",
"#	c #626262",
"$	c #909090",
"%	c #FF9000",
"&	c #FFFFFF",
"+++....+################ ....+++++++++",
"++%%%%% $$$$$$$$$$$$$$$$ %%%%.++++++++",
"+@%&&&& &&&&&&&&&&&&&&&& &&&&.@+++++++",
"@&&%%%% $$$$$$$$$$$$$$$$ %%%%.&@++++++",
"@@%%%%% $$$$$$$$$$$$$$$$ %%%%.@@++++++",
"+@%%%%% ################ %%%%.@   ++++",
"++%.... ################ .....     +++",
"+++....                  ....       ++",
"++++                                 +",
"+++++                               ++",
"++++++                              ++",
"+++++++    +                       +++"};
